<svg width="3591" height="2579" viewBox="0 0 3591 2579" fill="none" xmlns="http://www.w3.org/2000/svg"><g fill="#3D9ED6" fill-opacity=".07"><rect y="1000" width="520" height="260" rx="6" transform="rotate(-18 0 1000)"/><rect x="513.6" y="833.1" width="520" height="260" rx="6" transform="rotate(-18 513.6 833.1)"/><rect x="1027.1" y="666.2" width="520" height="260" rx="6" transform="rotate(-18 1027.1 666.2)"/><rect x="1540.7" y="499.4" width="520" height="260" rx="6" transform="rotate(-18 1540.7 499.4)"/><rect x="2054.3" y="332.5" width="520" height="260" rx="6" transform="rotate(-18 2054.3 332.5)"/><rect x="2567.9" y="165.6" width="520" height="260" rx="6" transform="rotate(-18 2567.9 165.6)"/><rect x="86.5" y="1266.3" width="520" height="260" rx="6" transform="rotate(-18 86.5 1266.3)"/><rect x="600.1" y="1099.4" width="520" height="260" rx="6" transform="rotate(-18 600.1 1099.4)"/><rect x="1113.7" y="932.5" width="520" height="260" rx="6" transform="rotate(-18 1113.7 932.5)"/><rect x="1627.2" y="765.7" width="520" height="260" rx="6" transform="rotate(-18 1627.2 765.7)"/><rect x="2140.8" y="598.8" width="520" height="260" rx="6" transform="rotate(-18 2140.8 598.8)"/><rect x="2654.4" y="431.9" width="520" height="260" rx="6" transform="rotate(-18 2654.4 431.9)"/><rect x="173" y="1532.6" width="520" height="260" rx="6" transform="rotate(-18 173 1532.6)"/><rect x="686.6" y="1365.7" width="520" height="260" rx="6" transform="rotate(-18 686.6 1365.7)"/><rect x="1200.2" y="1198.8" width="520" height="260" rx="6" transform="rotate(-18 1200.2 1198.8)"/><rect x="1713.8" y="1032" width="520" height="260" rx="6" transform="rotate(-18 1713.8 1032)"/><rect x="2227.3" y="865.1" width="520" height="260" rx="6" transform="rotate(-18 2227.3 865.1)"/><rect x="2740.9" y="698.2" width="520" height="260" rx="6" transform="rotate(-18 2740.9 698.2)"/><rect x="259.6" y="1798.9" width="520" height="260" rx="6" transform="rotate(-18 259.6 1798.9)"/><rect x="773.1" y="1632" width="520" height="260" rx="6" transform="rotate(-18 773.1 1632)"/><rect x="1286.7" y="1465.1" width="520" height="260" rx="6" transform="rotate(-18 1286.7 1465.1)"/><rect x="1800.3" y="1298.3" width="520" height="260" rx="6" transform="rotate(-18 1800.3 1298.3)"/><rect x="2313.9" y="1131.4" width="520" height="260" rx="6" transform="rotate(-18 2313.9 1131.4)"/><rect x="2827.4" y="964.5" width="520" height="260" rx="6" transform="rotate(-18 2827.4 964.5)"/><rect x="346.1" y="2065.2" width="520" height="260" rx="6" transform="rotate(-18 346.1 2065.2)"/><rect x="859.7" y="1898.3" width="520" height="260" rx="6" transform="rotate(-18 859.7 1898.3)"/><rect x="1373.2" y="1731.4" width="520" height="260" rx="6" transform="rotate(-18 1373.2 1731.4)"/><rect x="1886.8" y="1564.6" width="520" height="260" rx="6" transform="rotate(-18 1886.8 1564.6)"/><rect x="2400.4" y="1397.7" width="520" height="260" rx="6" transform="rotate(-18 2400.4 1397.7)"/><rect x="2913.9" y="1230.8" width="520" height="260" rx="6" transform="rotate(-18 2913.9 1230.8)"/><rect x="432.6" y="2331.5" width="520" height="260" rx="6" transform="rotate(-18 432.6 2331.5)"/><rect x="946.2" y="2164.6" width="520" height="260" rx="6" transform="rotate(-18 946.2 2164.6)"/><rect x="1459.8" y="1997.7" width="520" height="260" rx="6" transform="rotate(-18 1459.8 1997.7)"/><rect x="1973.3" y="1830.9" width="520" height="260" rx="6" transform="rotate(-18 1973.3 1830.9)"/><rect x="2486.9" y="1664" width="520" height="260" rx="6" transform="rotate(-18 2486.9 1664)"/><rect x="3000.5" y="1497.1" width="520" height="260" rx="6" transform="rotate(-18 3000.5 1497.1)"/></g></svg>