<svg width="14" height="15" viewBox="0 0 14 15" fill="none" xmlns="http://www.w3.org/2000/svg">
<path d="M3.57694 10.5863C3.34161 10.5863 3.14022 10.5026 2.97278 10.3351C2.80534 10.1677 2.72148 9.96615 2.72119 9.73054V3.7403C2.72119 3.50497 2.80505 3.30359 2.97278 3.13615C3.14051 2.9687 3.34189 2.88484 3.57694 2.88456H4.00481V2.02881H4.86056V2.88456H8.28355V2.02881H9.1393V2.88456H9.56717C9.8025 2.88456 10.004 2.96842 10.1718 3.13615C10.3395 3.30387 10.4232 3.50526 10.4229 3.7403V5.74061C10.4229 5.86185 10.3818 5.96354 10.2997 6.04569C10.2175 6.12784 10.116 6.16877 9.99505 6.16849C9.8741 6.1682 9.77255 6.12713 9.6904 6.04526C9.60825 5.96339 9.56717 5.86185 9.56717 5.74061V5.4518H3.57694V9.73054H6.05861C6.17984 9.73054 6.28153 9.77161 6.36368 9.85377C6.44583 9.93592 6.48677 10.0375 6.48648 10.1584C6.4862 10.2794 6.44512 10.381 6.36325 10.4635C6.28139 10.5459 6.17984 10.5869 6.05861 10.5863H3.57694ZM9.1393 11.0142C8.54741 11.0142 8.04294 10.8055 7.62591 10.3882C7.20888 9.97086 7.00022 9.4664 6.99993 8.87479C6.99964 8.28318 7.2083 7.77872 7.62591 7.3614C8.04351 6.94408 8.54798 6.73542 9.1393 6.73542C9.73062 6.73542 10.2352 6.94408 10.6531 7.3614C11.071 7.77872 11.2795 8.28318 11.2787 8.87479C11.2778 9.4664 11.0692 9.971 10.6527 10.3886C10.2362 10.8062 9.73176 11.0147 9.1393 11.0142ZM9.85599 9.89099L10.1555 9.59148L9.35324 8.78922V7.59117H8.92536V8.96037L9.85599 9.89099Z" fill="#737373"/>
</svg>
