<svg width="206" height="207" viewBox="0 0 206 207" fill="none" xmlns="http://www.w3.org/2000/svg">
<path d="M63.3135 122.301L205.603 0.140747L75.7074 89.487L63.3135 122.301Z" fill="url(#paint0_linear_3562_3880)"/>
<path d="M205.603 0.140625L50.9201 75.1647L0.0996094 45.8109L205.603 0.140625Z" fill="url(#paint1_linear_3562_3880)"/>
<path d="M205.604 0.140747L75.708 89.487L126.528 118.841L205.604 0.140747Z" fill="url(#paint2_linear_3562_3880)"/>
<path d="M75.7072 89.487L205.603 0.140747L50.9194 75.1648L63.3133 122.301L75.7072 89.487Z" fill="url(#paint3_linear_3562_3880)"/>
<path opacity="0.4" d="M172.675 125.73L33.0249 156.771L66.0227 175.83L67.5592 176.713L86.0042 175.389L94.8998 192.509L118.939 206.39L172.675 125.73Z" fill="#162026"/>
<defs>
<linearGradient id="paint0_linear_3562_3880" x1="130.893" y1="55.7112" x2="134.461" y2="122.301" gradientUnits="userSpaceOnUse">
<stop stop-color="#255877"/>
<stop offset="1" stop-color="#11232E"/>
</linearGradient>
<linearGradient id="paint1_linear_3562_3880" x1="144.682" y1="117.982" x2="94.6891" y2="2.86488" gradientUnits="userSpaceOnUse">
<stop stop-color="#37779D"/>
<stop offset="0.697295" stop-color="#37779D"/>
<stop offset="1" stop-color="#3690C6"/>
</linearGradient>
<linearGradient id="paint2_linear_3562_3880" x1="242.646" y1="93.3142" x2="157.372" y2="46.0701" gradientUnits="userSpaceOnUse">
<stop offset="0.56" stop-color="#4799CA"/>
<stop offset="1" stop-color="#37779D"/>
</linearGradient>
<linearGradient id="paint3_linear_3562_3880" x1="126.953" y1="39.1583" x2="128.262" y2="122.301" gradientUnits="userSpaceOnUse">
<stop stop-color="#285E7D"/>
<stop offset="1" stop-color="#0F3145"/>
</linearGradient>
</defs>
</svg>
