<svg width="206" height="207" viewBox="0 0 206 207" fill="none" xmlns="http://www.w3.org/2000/svg">
<path d="M63.3135 122.301L205.603 0.140991L75.7074 89.4873L63.3135 122.301Z" fill="url(#paint0_linear_3584_3113)"/>
<path d="M205.603 0.140869L50.9201 75.165L0.0996094 45.8111L205.603 0.140869Z" fill="url(#paint1_linear_3584_3113)"/>
<path d="M205.604 0.140991L75.708 89.4873L126.528 118.841L205.604 0.140991Z" fill="url(#paint2_linear_3584_3113)"/>
<path d="M75.7072 89.4873L205.603 0.140991L50.9194 75.1651L63.3133 122.301L75.7072 89.4873Z" fill="url(#paint3_linear_3584_3113)"/>
<path opacity="0.4" d="M172.675 125.73L33.0249 156.771L66.0227 175.83L67.5592 176.713L86.0042 175.389L94.8998 192.51L118.939 206.39L172.675 125.73Z" fill="#162026"/>
<path d="M57.1414 85.4342L57.4378 75.8243L58.3289 75.3897L62.9913 82.581L62.049 83.0406L60.6826 80.8403L58.069 82.1151L58.0197 85.0058L57.1414 85.4342ZM58.081 81.0891L60.2 80.0556L58.965 78.0366C58.589 77.4237 58.2957 76.9124 58.0852 76.5029C58.1405 77.0828 58.1622 77.6749 58.1503 78.279L58.081 81.0891Z" fill="url(#paint4_linear_3584_3113)"/>
<path d="M65.3878 71.9468L66.215 71.5434L67.4307 76.4192C67.6421 77.2673 67.739 77.9755 67.7213 78.5437C67.7035 79.1119 67.5477 79.6442 67.2538 80.1405C66.9618 80.6316 66.5145 81.0241 65.9118 81.318C65.3263 81.6036 64.8134 81.701 64.3731 81.6101C63.9328 81.5192 63.5689 81.2555 63.2815 80.8189C62.9932 80.3784 62.7375 79.7111 62.5146 78.8169L61.2989 73.9412L62.1261 73.5377L63.3403 78.4077C63.523 79.1407 63.7077 79.6576 63.8943 79.9583C64.0827 80.2538 64.3226 80.4359 64.6139 80.5048C64.9081 80.5722 65.2329 80.5193 65.5882 80.346C66.1965 80.0493 66.5836 79.6517 66.7494 79.1533C66.9153 78.6549 66.8661 77.8761 66.6021 76.8169L65.3878 71.9468Z" fill="url(#paint5_linear_3584_3113)"/>
<path d="M69.4386 79.4365L67.3345 70.9974L69.4877 69.9472C69.9737 69.7101 70.3547 69.5695 70.6307 69.5253C71.0166 69.4619 71.3724 69.5144 71.6981 69.6827C72.1216 69.8979 72.4875 70.2596 72.7959 70.7678C73.1063 71.2707 73.3552 71.8983 73.5427 72.6504C73.7025 73.2913 73.7887 73.8864 73.8013 74.4355C73.8138 74.9846 73.7741 75.4646 73.682 75.8753C73.589 76.2823 73.4622 76.6304 73.3016 76.9196C73.1429 77.2036 72.9291 77.465 72.6602 77.7038C72.3942 77.9411 72.0722 78.152 71.6941 78.3364L69.4386 79.4365ZM70.0174 78.0372L71.352 77.3863C71.7642 77.1852 72.0739 76.9761 72.2811 76.7588C72.4912 76.5401 72.6425 76.3027 72.7349 76.0468C72.865 75.6863 72.9285 75.2571 72.9256 74.7593C72.9245 74.2562 72.8445 73.6861 72.6857 73.0491C72.4656 72.1664 72.1887 71.5418 71.855 71.1751C71.5231 70.8032 71.1836 70.6115 70.8364 70.6001C70.586 70.5931 70.2149 70.7095 69.7232 70.9493L68.41 71.5898L70.0174 78.0372Z" fill="url(#paint6_linear_3584_3113)"/>
<path d="M75.6277 76.4179L73.5236 67.9788L74.3507 67.5753L76.4548 76.0144L75.6277 76.4179Z" fill="url(#paint7_linear_3584_3113)"/>
<path d="M76.379 71.4414C76.0298 70.0407 76.0351 68.8091 76.3952 67.7469C76.7542 66.6807 77.3743 65.9328 78.2555 65.503C78.8325 65.2216 79.3991 65.154 79.9553 65.3002C80.5114 65.4465 80.9935 65.7946 81.4016 66.3445C81.8116 66.8892 82.1219 67.5837 82.3324 68.428C82.5458 69.2838 82.6087 70.1118 82.5213 70.912C82.4339 71.7122 82.1992 72.4013 81.8173 72.9793C81.4344 73.5535 80.9715 73.9729 80.4285 74.2377C79.8402 74.5247 79.2664 74.5893 78.7074 74.4315C78.1484 74.2737 77.6668 73.9211 77.2625 73.3736C76.8582 72.8262 76.5637 72.1821 76.379 71.4414ZM77.2361 71.0428C77.4896 72.0598 77.8914 72.7634 78.4414 73.1537C78.9934 73.5388 79.5749 73.5823 80.186 73.2842C80.8085 72.9806 81.2465 72.4356 81.5 71.6491C81.7562 70.8612 81.749 69.9242 81.4782 68.8382C81.3069 68.1512 81.071 67.5948 80.7703 67.169C80.4715 66.7379 80.1209 66.4634 79.7185 66.3455C79.318 66.2223 78.9116 66.2612 78.4995 66.4622C77.9139 66.7478 77.4773 67.2664 77.1896 68.0179C76.9039 68.7642 76.9193 69.7725 77.2361 71.0428Z" fill="url(#paint8_linear_3584_3113)"/>
<path d="M83.2324 69.6678L83.9897 69.1951C84.1319 69.5992 84.3038 69.9049 84.5053 70.1122C84.7087 70.3143 84.9736 70.4305 85.2999 70.4607C85.6253 70.4871 85.9657 70.4136 86.321 70.2403C86.6365 70.0865 86.8993 69.8873 87.1093 69.6428C87.3194 69.3983 87.4554 69.1383 87.5174 68.8627C87.5813 68.5819 87.5807 68.311 87.5156 68.05C87.4496 67.7852 87.3353 67.5827 87.1728 67.4424C87.0094 67.2983 86.7802 67.2229 86.4852 67.2161C86.2954 67.2096 85.8905 67.2543 85.2704 67.3501C84.6493 67.4421 84.2031 67.4618 83.9317 67.4091C83.5806 67.3436 83.2924 67.1914 83.0671 66.9527C82.8437 66.7087 82.6837 66.3929 82.587 66.0053C82.4808 65.5793 82.4713 65.1384 82.5585 64.6827C82.6448 64.2231 82.836 63.8134 83.1321 63.4538C83.4282 63.0942 83.7866 62.8118 84.2073 62.6066C84.6706 62.3806 85.1039 62.2834 85.507 62.3148C85.9121 62.3411 86.2587 62.5035 86.5467 62.8021C86.8348 63.1006 87.0476 63.494 87.1852 63.9821L86.4123 64.4495C86.2366 63.9368 85.9912 63.6046 85.676 63.4527C85.3636 63.2995 84.9672 63.34 84.4868 63.5743C83.9865 63.8183 83.6524 64.1212 83.4843 64.4829C83.3182 64.8395 83.2786 65.1923 83.3657 65.5416C83.4413 65.8447 83.5845 66.0547 83.7953 66.1714C84.0033 66.2895 84.4685 66.2885 85.191 66.1686C85.9154 66.0434 86.4218 65.9966 86.7102 66.0281C87.1305 66.077 87.4709 66.2339 87.7314 66.4985C87.9909 66.7593 88.1771 67.1162 88.29 67.569C88.4019 68.018 88.4124 68.4885 88.3215 68.9805C88.2296 69.4687 88.0323 69.9114 87.7297 70.3087C87.4289 70.7008 87.0554 71.0056 86.6091 71.2233C86.0435 71.4992 85.541 71.6194 85.1018 71.584C84.6654 71.5472 84.2823 71.3595 83.9524 71.0211C83.6244 70.6775 83.3844 70.2264 83.2324 69.6678Z" fill="url(#paint9_linear_3584_3113)"/>
<path d="M89.7692 69.5206L87.6651 61.0815L92.1846 58.8772L92.4329 59.873L88.7405 61.674L89.385 64.2586L92.8429 62.5721L93.0897 63.5622L89.6318 65.2488L90.348 68.1213L94.1854 66.2497L94.4337 67.2455L89.7692 69.5206Z" fill="url(#paint10_linear_3584_3113)"/>
<path d="M99.0366 61.6819L99.9341 61.5605C99.9894 62.5623 99.8513 63.4152 99.5199 64.1192C99.1904 64.8179 98.7002 65.326 98.0493 65.6435C97.3756 65.9721 96.7811 66.0555 96.2657 65.8936C95.7522 65.7265 95.297 65.3459 94.9002 64.7518C94.5062 64.1562 94.2088 63.4555 94.0078 62.6496C93.7887 61.7707 93.7215 60.9448 93.8061 60.1718C93.8926 59.3936 94.1226 58.724 94.496 58.163C94.8714 57.5969 95.3347 57.1793 95.8862 56.9104C96.5115 56.6054 97.091 56.5638 97.6245 56.7857C98.1581 57.0075 98.6058 57.4671 98.9678 58.1644L98.218 58.8206C97.9199 58.2773 97.5981 57.9328 97.2525 57.7871C96.907 57.6414 96.5252 57.6705 96.1074 57.8743C95.627 58.1086 95.2635 58.4602 95.017 58.9291C94.7733 59.3966 94.6516 59.9251 94.652 60.5147C94.6513 61.1004 94.7204 61.6714 94.8591 62.2279C95.0381 62.9456 95.2713 63.5356 95.5587 63.998C95.848 64.4552 96.1892 64.7365 96.5821 64.8418C96.975 64.9472 97.3619 64.907 97.7428 64.7212C98.2061 64.4952 98.5534 64.1235 98.7847 63.6061C99.0159 63.0887 99.0999 62.4473 99.0366 61.6819Z" fill="url(#paint11_linear_3584_3113)"/>
<path d="M102.953 63.0903L101.097 55.6471L99.038 56.6515L98.7897 55.6557L103.744 53.2392L103.992 54.2351L101.925 55.2437L103.78 62.6869L102.953 63.0903Z" fill="url(#paint12_linear_3584_3113)"/>
<path d="M105.001 57.4817C104.651 56.0809 104.657 54.8494 105.017 53.7871C105.376 52.721 105.996 51.973 106.877 51.5432C107.454 51.2618 108.021 51.1942 108.577 51.3405C109.133 51.4868 109.615 51.8349 110.023 52.3848C110.433 52.9295 110.744 53.624 110.954 54.4683C111.167 55.3241 111.23 56.1521 111.143 56.9523C111.056 57.7525 110.821 58.4416 110.439 59.0196C110.056 59.5937 109.593 60.0132 109.05 60.278C108.462 60.565 107.888 60.6296 107.329 60.4718C106.77 60.314 106.288 59.9614 105.884 59.4139C105.48 58.8664 105.185 58.2224 105.001 57.4817ZM105.858 57.083C106.111 58.1 106.513 58.8037 107.063 59.194C107.615 59.5791 108.197 59.6226 108.808 59.3245C109.43 59.0209 109.868 58.4758 110.122 57.6893C110.378 56.9015 110.371 55.9645 110.1 54.8784C109.929 54.1915 109.693 53.6351 109.392 53.2092C109.093 52.7782 108.743 52.5037 108.34 52.3857C107.94 52.2626 107.533 52.3015 107.121 52.5025C106.536 52.7881 106.099 53.3067 105.811 54.0582C105.526 54.8045 105.541 55.8128 105.858 57.083Z" fill="url(#paint13_linear_3584_3113)"/>
<path d="M112.824 58.2759L110.72 49.8368L113.492 48.4851C114.049 48.2133 114.491 48.0835 114.82 48.0956C115.147 48.1039 115.445 48.2576 115.714 48.5568C115.983 48.856 116.176 49.2378 116.291 49.7021C116.441 50.3008 116.423 50.8755 116.238 51.4261C116.054 51.9768 115.675 52.454 115.103 52.8579C115.357 52.8931 115.559 52.9521 115.707 53.0348C116.023 53.2163 116.345 53.4788 116.673 53.8225L118.333 55.5891L117.293 56.0965L116.028 54.7442C115.66 54.3554 115.364 54.0649 115.141 53.8725C114.918 53.6801 114.73 53.5607 114.578 53.5142C114.429 53.4664 114.285 53.4525 114.147 53.4727C114.046 53.4916 113.89 53.553 113.676 53.657L112.717 54.1249L113.651 57.8724L112.824 58.2759ZM112.476 53.1578L114.254 52.2906C114.632 52.1063 114.915 51.9103 115.102 51.7027C115.288 51.4912 115.408 51.2433 115.462 50.959C115.514 50.6708 115.507 50.3905 115.439 50.1181C115.339 49.7189 115.149 49.4435 114.869 49.2917C114.592 49.1386 114.222 49.175 113.758 49.401L111.78 50.3659L112.476 53.1578Z" fill="url(#paint14_linear_3584_3113)"/>
<defs>
<linearGradient id="paint0_linear_3584_3113" x1="130.893" y1="55.7115" x2="134.461" y2="122.301" gradientUnits="userSpaceOnUse">
<stop offset="0" stop-color="#255877"/>
<stop offset="1" stop-color="#11232E"/>
</linearGradient>
<linearGradient id="paint1_linear_3584_3113" x1="144.682" y1="117.982" x2="94.6891" y2="2.86512" gradientUnits="userSpaceOnUse">
<stop offset="2" stop-color="#37779D"/>
<stop offset="0.697295" stop-color="#37779D"/>
<stop offset="1" stop-color="#3690C6"/>
</linearGradient>
<linearGradient id="paint2_linear_3584_3113" x1="242.646" y1="93.3144" x2="157.372" y2="46.0704" gradientUnits="userSpaceOnUse">
<stop offset="0.56" stop-color="#4799CA"/>
<stop offset="1" stop-color="#37779D"/>
</linearGradient>
<linearGradient id="paint3_linear_3584_3113" x1="126.953" y1="39.1586" x2="128.262" y2="122.301" gradientUnits="userSpaceOnUse">
<stop offset="0" stop-color="#285E7D"/>
<stop offset="1" stop-color="#0F3145"/>
</linearGradient>
<linearGradient id="paint4_linear_3584_3113" x1="56.0886" y1="81.2118" x2="120.705" y2="65.1012" gradientUnits="userSpaceOnUse">
<stop offset="0" stop-color="#CCCCCC"/>
<stop offset="1" stop-color="#CCCCCC" stop-opacity="0.443137"/>
</linearGradient>
<linearGradient id="paint5_linear_3584_3113" x1="56.0886" y1="81.2118" x2="120.705" y2="65.1012" gradientUnits="userSpaceOnUse">
<stop offset="0" stop-color="#CCCCCC"/>
<stop offset="1" stop-color="#CCCCCC" stop-opacity="0.443137"/>
</linearGradient>
<linearGradient id="paint6_linear_3584_3113" x1="56.0886" y1="81.2118" x2="120.705" y2="65.1012" gradientUnits="userSpaceOnUse">
<stop offset="0" stop-color="#CCCCCC"/>
<stop offset="1" stop-color="#CCCCCC" stop-opacity="0.443137"/>
</linearGradient>
<linearGradient id="paint7_linear_3584_3113" x1="56.0886" y1="81.2118" x2="120.705" y2="65.1012" gradientUnits="userSpaceOnUse">
<stop offset="0" stop-color="#CCCCCC"/>
<stop offset="1" stop-color="#CCCCCC" stop-opacity="0.443137"/>
</linearGradient>
<linearGradient id="paint8_linear_3584_3113" x1="56.0886" y1="81.2118" x2="120.705" y2="65.1012" gradientUnits="userSpaceOnUse">
<stop offset="0" stop-color="#CCCCCC"/>
<stop offset="1" stop-color="#CCCCCC" stop-opacity="0.443137"/>
</linearGradient>
<linearGradient id="paint9_linear_3584_3113" x1="56.0886" y1="81.2118" x2="120.705" y2="65.1012" gradientUnits="userSpaceOnUse">
<stop offset="0" stop-color="#CCCCCC"/>
<stop offset="1" stop-color="#CCCCCC" stop-opacity="0.443137"/>
</linearGradient>
<linearGradient id="paint10_linear_3584_3113" x1="56.0886" y1="81.2118" x2="120.705" y2="65.1012" gradientUnits="userSpaceOnUse">
<stop offset="0" stop-color="#CCCCCC"/>
<stop offset="1" stop-color="#CCCCCC" stop-opacity="0.443137"/>
</linearGradient>
<linearGradient id="paint11_linear_3584_3113" x1="56.0886" y1="81.2118" x2="120.705" y2="65.1012" gradientUnits="userSpaceOnUse">
<stop offset="0" stop-color="#CCCCCC"/>
<stop offset="1" stop-color="#CCCCCC" stop-opacity="0.443137"/>
</linearGradient>
<linearGradient id="paint12_linear_3584_3113" x1="56.0886" y1="81.2118" x2="120.705" y2="65.1012" gradientUnits="userSpaceOnUse">
<stop offset="0" stop-color="#CCCCCC"/>
<stop offset="1" stop-color="#CCCCCC" stop-opacity="0.443137"/>
</linearGradient>
<linearGradient id="paint13_linear_3584_3113" x1="56.0886" y1="81.2118" x2="120.705" y2="65.1012" gradientUnits="userSpaceOnUse">
<stop offset="0" stop-color="#CCCCCC"/>
<stop offset="1" stop-color="#CCCCCC" stop-opacity="0.443137"/>
</linearGradient>
<linearGradient id="paint14_linear_3584_3113" x1="56.0886" y1="81.2118" x2="120.705" y2="65.1012" gradientUnits="userSpaceOnUse">
<stop offset="0" stop-color="#CCCCCC"/>
<stop offset="1" stop-color="#CCCCCC" stop-opacity="0.443137"/>
</linearGradient>
</defs>
</svg>
